<svg id="Layer_1" enable-background="new 0 0 100 100" viewBox="0 0 100 100" xmlns="http://www.w3.org/2000/svg"><g fill="#bb009a"><path d="m36.1597176 91.5350494h-7.5383148c-6.713295 0-12.1750946-5.4613266-12.1750946-12.1750946v-14.5114746c0-2.3505745-1.1800213-4.51371-3.1561899-5.7860298l-9.0118036-5.8021278c-1.1085483-.7137871-1.7783157-1.9416161-1.7783157-3.2603226s.6697674-2.5465355 1.7783155-3.2603226l9.0118036-5.8021278c1.9761686-1.2723198 3.1561899-3.4354553 3.1561899-5.7860336v-14.5114708c0-6.7137671 5.4617996-12.1750937 12.1750946-12.1750937h7.5383148c2.1413612 0 3.877552 1.7361889 3.877552 3.8775511s-1.7361908 3.8775501-3.877552 3.8775501h-7.5383148c-2.4371986 0-4.4199924 1.9832687-4.4199924 4.4199924v14.5114709c0 4.9993515-2.5096169 9.6001587-6.712822 12.3066826l-3.9480761 2.5418014 3.9480762 2.5418015c4.2032051 2.7065239 6.712822 7.3073311 6.712822 12.3066788v14.5114746c0 2.4367218 1.9827938 4.4199905 4.4199924 4.4199905h7.5383148c2.1413612 0 3.877552 1.7361908 3.877552 3.8775482.0000001 2.141365-1.7361907 3.8775558-3.8775519 3.8775558z"/><path d="m71.3785934 91.5350494h-7.538311c-2.1413612 0-3.877552-1.7361908-3.877552-3.8775558 0-2.1413574 1.7361908-3.8775482 3.877552-3.8775482h7.538311c2.4372025 0 4.4199982-1.9832687 4.4199982-4.4199905v-14.5114747c0-4.9993477 2.509613-9.6001549 6.7128143-12.3066788l3.948082-2.5418014-3.948082-2.5418015c-4.2032013-2.7065239-6.7128143-7.3073311-6.7128143-12.3066826v-14.5114707c0-2.4367237-1.9827957-4.4199924-4.4199982-4.4199924h-7.538311c-2.1413612 0-3.877552-1.736187-3.877552-3.8775501s1.7361908-3.8775511 3.877552-3.8775511h7.538311c6.713295 0 12.1750946 5.4613266 12.1750946 12.1750937v14.5114707c0 2.3505783 1.1800232 4.5137138 3.156189 5.7860336l9.0118103 5.8021278c1.1085434.7137871 1.7783127 1.9416161 1.7783127 3.2603226s-.6697693 2.5465355-1.7783127 3.2603226l-9.0118103 5.8021278c-1.9761658 1.2723198-3.156189 3.4354553-3.156189 5.7860298v14.5114746c0 6.713768-5.4617996 12.1750946-12.1750946 12.1750946z"/></g></svg>